<svg xmlns="http://www.w3.org/2000/svg" enable-background="new 0 0 60 60" viewBox="0 0 60 60" id="delivery-truck"><path fill="#3B4652" d="M10.7999878 25.2449951c-.5499878 0-1 .4500122-1 1 0 .5599976.4500122 1 1 1h3.2399902v-2H10.7999878zM13.0800171 21.3150024c0 .539978.4299927.9799805.9599609 1v-2C13.5100098 20.3349609 13.0800171 20.7749634 13.0800171 21.3150024zM7 30.1849976c-.5499878 0-1 .4500122-1 1s.4500122 1 1 1h7.039978v-2H7zM24.5900269 36.1450195c-2.3300171 0-4.2200317 1.8899536-4.2200317 4.2099609 0 2.3300171 1.8900146 4.2200317 4.2200317 4.2200317 2.3199463 0 4.2199707-1.8900146 4.2199707-4.2200317C28.8099976 38.0349731 26.9099731 36.1450195 24.5900269 36.1450195zM47.3800049 36.1450195c-2.3200073 0-4.210022 1.8899536-4.210022 4.2099609 0 2.3300171 1.8900146 4.2200317 4.210022 4.2200317 2.3300171 0 4.2199707-1.8900146 4.2199707-4.2200317C51.5999756 38.0349731 49.710022 36.1450195 47.3800049 36.1450195z"></path><path fill="#3B4652" d="M53.8349609,31.7706299l-5.2558594-7.9677734
		c-0.1850586-0.2802734-0.4990234-0.4492188-0.8349609-0.4492188h-2.9741211v11.3743286
		c0.7947388-0.3701172,1.6768799-0.5828247,2.6098633-0.5828247c3.4296875,0,6.2202148,2.7856445,6.2202148,6.2099609
		c0,0.2791748-0.0249023,0.552063-0.06073,0.8215942C53.8103027,40.9978027,54,40.7055054,54,40.3565674v-8.0351563
		C54,32.1256104,53.9423828,31.9342041,53.8349609,31.7706299z"></path><path fill="#2B79C2" d="M41.7700195,15.4249878H15.039978c-0.5499878,0-1,0.4500122-1,1v3.8900146H22c0.5499878,0,1,0.4500122,1,1
		s-0.4500122,1-1,1h-7.960022v2.9299927H22c0.5499878,0,1,0.4500122,1,1c0,0.5599976-0.4500122,1-1,1h-7.960022v2.9400024H22
		c0.5499878,0,1,0.4500122,1,1s-0.4500122,1-1,1h-7.960022v8.1699829c0,0.5499878,0.4500122,1,1,1h3.4200439
		c-0.0500488-0.3300171-0.0900269-0.6599731-0.0900269-1c0-3.4199829,2.789978-6.2099609,6.2200317-6.2099609
		c3.4299927,0,6.2199707,2.789978,6.2199707,6.2099609c0,0.3400269-0.0299683,0.6699829-0.0900269,1h11.0500488
		c0.5499878,0,1-0.4500122,1-1V16.4249878C42.7700195,15.875,42.3200073,15.4249878,41.7700195,15.4249878z M38.8900146,26.5050049
		c0,0.0499878-0.0200195,0.0899658-0.0400391,0.1400146c-0.0499878,0.1199951-0.1199951,0.2299805-0.2099609,0.3199463
		l-2.5200195,2.5100098c-0.2000122,0.2000122-0.4500122,0.2900391-0.710022,0.2900391
		c-0.2599487,0-0.5099487-0.1000366-0.7099609-0.2900391c-0.3900146-0.3900146-0.3900146-1.0299683,0-1.4199829l0.8099976-0.7999878
		h-7.7000122c-0.5599976,0-1-0.4500122-1-1s0.4400024-1,1-1h7.710022l-0.8200073-0.8200073
		c-0.3900146-0.3900146-0.3900146-1.0200195,0-1.4100342c0.3900146-0.3899536,1.0299683-0.3899536,1.4199829,0l2.5200195,2.5200195
		c0.0700073,0.0700073,0.1199951,0.1400146,0.1699829,0.2299805c0,0.0100098,0,0.0100098,0,0.0100098
		c0.0499878,0.0800171,0.0800171,0.1799927,0.0999756,0.2700195c0.0100098,0.0599976,0.0200195,0.1300049,0.0200195,0.2000122
		C38.9299927,26.3449707,38.9199829,26.4249878,38.8900146,26.5050049z"></path></svg>