<svg xmlns="http://www.w3.org/2000/svg" width="48" height="48" id="delivery"><g fill-rule="evenodd" transform="translate(0 -1004.362)"><circle cx="24" cy="1028.362" r="24" fill="#239fdb"></circle><path style="line-height:normal;text-indent:0;text-align:start;text-decoration-line:none;text-decoration-style:solid;text-decoration-color:#000;text-transform:none;block-progression:tb;isolation:auto;mix-blend-mode:normal" fill="#fff" d="M20 1016.362v13h-2v-1h-1v7h-.826v-4.762a.5.5 0 0 0-.5-.5h-5a.5.5 0 0 0-.5.5v4.762H9v1h9v-4h2v4h1v-1h1c0 1.651 1.35 3 3 3s3-1.349 3-3h4.05a2.508 2.508 0 0 0 2.45 3c1.375 0 2.5-1.125 2.5-2.5 0-.81-.398-1.527-1-1.984v-2.016c0-.666-.318-1.275-.771-1.728-.073-.073-.156-.136-.237-.201v-9.995c0-.94-.493-1.816-1.197-2.468-.704-.653-1.64-1.1-2.627-1.1h-.004l-1.234.019c-.753-.034-2.987 0-2.987 0h-.017a3.892 3.892 0 0 0-1.705.52c-.62.355-1.228.949-1.483 1.832l-.002.01-.529 1.996-.525 1.99-.528 1.99-.433 1.639H21v-10h-1zm11.168 1.008c.676 0 1.403.329 1.945.832.543.503.88 1.161.88 1.736v9.483a2.118 2.118 0 0 0-.493-.06H32v-1h1v-3.491a.5.5 0 0 0-.508-.508.5.5 0 0 0-.492.508v2.492h-2.492a.5.5 0 1 0 0 1H31v1h-1.494c-.26 0-.618-.033-.977.21-.358.241-.529.709-.529 1.29v.5h-2.148c-.143-.381-.37-.692-.63-.822-.369-.185-.722-.178-.722-.178h-.36l.094-.377.25-1 .348-1.386-.53-.272 1.407-1.463.375.375a.5.5 0 1 0 .707-.707l-1.496-1.496a.5.5 0 0 0-.358-.15.5.5 0 0 0-.35.857l.417.416-1.629 1.693-.66-.338.406-1.535.527-1.99.526-1.99.525-1.98c.172-.597.564-.981 1.02-1.243.454-.26.972-.373 1.248-.387.015 0 2.367-.03 2.945 0h.016l1.24-.019zM21 1027.362h.455l-.355 1.344-.1.377v-1.72zm1.453.14 1.215.626-.152.613-.25 1-.407 1.621H24.5s.147.01.277.07c.131.065.223.094.223.428v.5h4v-1.5c0-.419.074-.453.088-.463.014-.01.154-.04.406-.037H33.5c.333 0 .725.182 1.021.479.297.296.479.69.479 1.023v1.55a2.492 2.492 0 0 0-2.486.949h-4.698a3 3 0 0 0-2.816-2 3 3 0 0 0-2.816 2H21v-1.501h.012l.527-1.91.527-1.992.387-1.46zm-4.453 2.86h2v1h-2v-1zm-6.826.738h.539v1.422a.5.5 0 0 0 .682.467l.794-.312.758.308a.5.5 0 0 0 .69-.463v-1.421h.537v4h-4v-3.999zm1.539 0h.924v.678l-.254-.103a.5.5 0 0 0-.371 0l-.3.117v-.69zM25 1033.362c1.11 0 2 .89 2 2 0 1.11-.89 2-2 2-1.11 0-2-.89-2-2 0-1.11.89-2 2-2zm9.5 1c.834 0 1.5.666 1.5 1.5 0 .835-.666 1.5-1.5 1.5s-1.5-.665-1.5-1.5c0-.834.666-1.5 1.5-1.5zm-9.5.5a.5.5 0 0 0-.5.5.5.5 0 0 0 .5.5.5.5 0 0 0 .5-.5.5.5 0 0 0-.5-.5zm9.5.5a.5.5 0 0 0-.5.5.5.5 0 0 0 .5.5.5.5 0 0 0 .5-.5.5.5 0 0 0-.5-.5z" color="#000" font-family="sans-serif" font-weight="400" overflow="visible"></path></g></svg>