<svg xmlns="http://www.w3.org/2000/svg" xmlns:xlink="http://www.w3.org/1999/xlink" viewBox="0 0 64 64" id="wallet"><defs><linearGradient id="a" x1="35.87" x2="46.02" y1="22.76" y2="12.61" gradientUnits="userSpaceOnUse"><stop offset="0" stop-color="#54a5ff"></stop><stop offset="1" stop-color="#8ad3fe"></stop></linearGradient><linearGradient id="b" x1="16.54" x2="32.46" y1="31.96" y2="16.04" xlink:href="#a"></linearGradient><linearGradient id="c" x1="29" x2="29" y1="61" y2="23" xlink:href="#a"></linearGradient></defs><path fill="url(#a)" d="M56.84 23.42 37.77 4.35a4.64 4.64 0 0 0-6.54 0l-6.18 6.18a1 1 0 0 0-.27.93 1 1 0 0 0 .65.72 2.64 2.64 0 0 1 .92.59l11.94 11.94A1 1 0 0 0 39 25h16a3.57 3.57 0 0 1 .89.1 1 1 0 0 0 .24 0 1 1 0 0 0 .71-1.71Z"></path><path fill="url(#b)" d="M39.71 23.29 27.77 11.35a4.48 4.48 0 0 0-1.64-1 4.63 4.63 0 0 0-4.9 1L9.29 23.29a1 1 0 0 0-.21 1.09A1 1 0 0 0 10 25h29a1 1 0 0 0 .92-.62 1 1 0 0 0-.21-1.09Z"></path><path fill="#4795ea" d="M54 23H11a4 4 0 0 0-4 4v30a4 4 0 0 0 4 4h43a6 6 0 0 0 6-6V29a6 6 0 0 0-6-6Z"></path><path fill="url(#c)" d="M55 29v26a6 6 0 0 1-5.89 6H6.92A4 4 0 0 1 3 57V27a4 4 0 0 1 3.92-4h42.19A6 6 0 0 1 55 29Z"></path><path fill="#4795ea" d="M60 36h-8a5 5 0 0 0-5 5v2a5 5 0 0 0 5 5h8a1 1 0 0 0 1-1V37a1 1 0 0 0-1-1Z"></path><path fill="#d7e9f7" d="M31 27h-8a3 3 0 0 0-3 3v2a3 3 0 0 0 3 3h8a3 3 0 0 0 3-3v-2a3 3 0 0 0-3-3Zm1 5a1 1 0 0 1-1 1h-8a1 1 0 0 1-1-1v-2a1 1 0 0 1 1-1h8a1 1 0 0 1 1 1Z"></path><circle cx="54" cy="42" r="2" fill="#d7e9f7"></circle><path fill="#d7e9f7" d="M10 23h2v38h-2zM14 23h2v38h-2z"></path></svg>